<svg id="Capa_1" enable-background="new 0 0 512 512" height="512" viewBox="0 0 512 512" width="512" xmlns="http://www.w3.org/2000/svg"><g><path d="m510.18 210.149c-38.718-55.049-84.509-95.792-136.102-121.097-49.557-24.307-103.442-33.05-155.841-25.281-5.463.81-9.235 5.895-8.426 11.357.81 5.463 5.892 9.242 11.358 8.426 77.823-11.534 154.674 15.703 218.903 75.793-1.46 5.314-4.087 10.397-7.641 14.653-4.469 5.326-10.023 8.99-15.642 10.316-.006.001-.012.004-.019.005-.003.001-.005.001-.008.001-8.583 2.051-16.772 7.317-23.06 14.829-6.106 7.295-10.173 16.449-11.452 25.777-.75 5.472 3.077 10.516 8.549 11.266.461.063.919.094 1.371.094 4.92 0 9.208-3.632 9.895-8.643.774-5.648 3.251-11.209 6.974-15.656 3.548-4.239 7.942-7.156 12.373-8.216.006-.001.011-.003.016-.005.217-.052.433-.114.65-.169 1.377 2.586 2.253 5.697 2.512 9.107.411 5.688-.877 11.682-3.628 16.878-2.583 4.881-.721 10.933 4.161 13.517 1.491.789 3.092 1.163 4.669 1.163 3.586 0 7.053-1.935 8.848-5.324 4.546-8.591 6.586-18.161 5.896-27.714-.46-6.049-2.062-11.741-4.635-16.7 2.815-2.251 5.461-4.823 7.868-7.692 3.073-3.68 5.693-7.768 7.79-12.099 11.908 12.548 23.321 26.278 34.147 41.166-25.697 35.351-54.755 64.368-86.531 86.468-1.986-2.85-3.879-5.408-5.611-7.569-4.161-5.21-10.769-12.139-20.077-12.146-.005 0-.01 0-.015 0-9.305 0-15.929 6.923-20.103 12.133-7.575 9.453-18.132 26.181-26.784 44.069-90.433 29.376-182.976 4.728-258.701-66.329 1.46-5.324 4.104-10.436 7.698-14.742 4.437-5.313 9.975-8.97 15.594-10.298 8.602-2.02 16.808-7.295 23.091-14.837 6.149-7.347 10.218-16.515 11.457-25.815.729-5.475-3.118-10.504-8.592-11.232-5.476-.729-10.504 3.117-11.233 8.592-.745 5.594-3.22 11.141-6.983 15.637-3.538 4.247-7.912 7.154-12.316 8.187-.004.001-.008.002-.012.003-.001 0-.002 0-.003 0-.226.053-.45.119-.675.176-1.384-2.592-2.257-5.706-2.504-9.138-.428-5.631.861-11.611 3.629-16.841 2.583-4.882.721-10.933-4.16-13.517-4.881-2.585-10.932-.72-13.517 4.159-4.577 8.647-6.616 18.23-5.898 27.676.436 6.051 2.034 11.754 4.622 16.733-2.814 2.253-5.456 4.827-7.852 7.697-3.086 3.697-5.717 7.797-7.82 12.135-11.874-12.545-23.277-26.282-34.12-41.202 34.01-46.814 73.507-82.24 117.48-105.346 4.889-2.569 6.77-8.615 4.201-13.504-2.569-4.89-8.617-6.768-13.503-4.201-48.597 25.536-91.88 65.002-128.648 117.302-2.426 3.45-2.426 8.052 0 11.503 15.826 22.509 33.077 42.773 51.464 60.593.482.586 1.028 1.119 1.634 1.584 32.346 30.978 68.172 54.389 105.998 68.992 31.015 11.973 63.033 17.97 95.07 17.969 21.671-.001 43.352-2.752 64.73-8.247-3.369 9.888-5.48 19.304-5.48 27.183 0 18.809 6.828 34.707 19.747 45.977 11.294 9.852 26.381 15.277 42.479 15.277 30.924 0 62.228-21.04 62.228-61.254 0-19.452-12.852-48.257-25.785-70.448 35.687-24.684 68.043-57.477 96.276-97.626 2.425-3.451 2.425-8.054-.001-11.505zm-132.718 220.833c-21.019 0-42.227-12.756-42.227-41.254 0-20.495 22.544-63.466 37.742-82.434 0 0 0 0 .001-.001 2.376-2.965 3.838-4.081 4.492-4.48.651.4 2.108 1.518 4.476 4.481 15.198 18.967 37.743 61.938 37.743 82.434 0 28.498-21.208 41.254-42.227 41.254z"/><path d="m255.986 264.016c26.505 0 48.069-21.584 48.069-48.114s-21.563-48.114-48.069-48.114c-26.505 0-48.068 21.584-48.068 48.114s21.563 48.114 48.068 48.114zm0-76.228c15.477 0 28.069 12.612 28.069 28.114s-12.592 28.114-28.069 28.114-28.068-12.612-28.068-28.114 12.591-28.114 28.068-28.114z"/><path d="m255.986 320.804c57.781 0 104.789-47.059 104.789-104.902s-47.008-104.902-104.789-104.902-104.789 47.059-104.789 104.902 47.008 104.902 104.789 104.902zm0-189.804c46.752 0 84.789 38.087 84.789 84.902s-38.036 84.902-84.789 84.902-84.789-38.087-84.789-84.902 38.036-84.902 84.789-84.902z"/><path d="m175.994 94.163h.028c5.523 0 9.986-4.478 9.986-10s-4.491-10-10.014-10-10 4.478-10 10 4.477 10 10 10z"/></g></svg>