<svg id="Layer_6" enable-background="new 0 0 64 64" height="512" viewBox="0 0 64 64" width="512" xmlns="http://www.w3.org/2000/svg"><g><path d="m35.052 12.31 1.896-.633c-1.096-3.287-4.26-5.426-4.394-5.516l-1.11 1.663c.027.019 2.732 1.859 3.608 4.486z"/><path d="m26.707 13.286-1.414 1.414 1.293 1.293-1.293 1.293 1.414 1.414 2.707-2.707z"/><path d="m37.293 18.7 1.414-1.414-1.293-1.293 1.293-1.293-1.414-1.414-2.707 2.707z"/><path d="m34 22.111 1.553.777.894-1.789-2.447-1.224-2 1-2-1-2.447 1.224.894 1.789 1.553-.777 2 1z"/><path d="m44.914 29.399 3.518-7.916 2.956 1.97 4.507-9.013-1.79-.894-3.493 6.987-3.044-2.03-4.482 10.084z"/><path d="m49.723 24.606-2.555 3.832 1.664 1.11 1.445-2.168 2.85 1.9 5.58-5.58-1.414-1.414-4.42 4.42z"/><path d="m14.892 22.516 5.308 7.077 1.6-1.199-6.692-8.923-2.98 2.98-4.315-6.039-1.626 1.162 5.685 7.961z"/><path d="m12.892 29.516 2.308 3.077 1.6-1.199-3.692-4.923-3.235 3.235-5.318-3.545-1.11 1.664 6.682 4.455z"/><path d="m59 43.993c0-3.867-6.106-7.185-12.572-10.697-1.332-.724-2.665-1.447-3.932-2.171-4.561-2.607-5.37-4.197-5.513-4.682 1.344-.812 2.738-2.042 3.874-3.935.12-.2.212-.404.317-.606 2.988-.464 3.826-2.674 3.826-3.909 0-1.072-.324-1.889-.807-2.501.5-1.878 1.355-6.535-1.18-10.132-2.041-2.898-5.747-4.367-11.013-4.367-2.591 0-4.8.36-6.623 1.066-.392-.212-1.628-.819-3.175-.938-1.761-.134-4.246.335-6.06 3.357-1.861 3.103-2.277 5.889-1.17 7.845.601 1.062 1.901 2.3 4.696 2.6.048.209.094.4.139.568-.483.613-.807 1.43-.807 2.502 0 1.245.854 3.482 3.906 3.919.055.151.105.301.166.452.86 2.148 2.346 3.471 3.862 4.293-.3.654-1.396 2.163-5.43 4.468-1.267.724-2.6 1.447-3.932 2.171-6.466 3.513-12.572 6.83-12.572 10.697 0 3.947 9.576 9.862 16.431 12.099-.722 1.574-1.949 4.005-3.138 5.194l-1.707 1.707h15.414 15.414l-1.707-1.707c-1.189-1.19-2.417-3.62-3.138-5.194 6.854-2.236 16.431-8.151 16.431-12.099zm-14.053-1.728c1.662.493 3.053 1.244 3.053 1.728 0 .736-2.453 3.047-5.229 4.948l-1.658-.276c.337-2.114 1.442-3.442 2.528-4.724.455-.536.913-1.083 1.306-1.676zm-2.842-22.783c.251-.965.391-1.929.426-2.862.268.296.469.724.469 1.373 0 .055-.02.914-.895 1.489zm-25.392-8.144c-.726-1.283-.309-3.408 1.145-5.83 1.593-2.655 3.805-2.621 5.238-2.227-.826.585-1.539 1.27-2.108 2.078-1.697 2.407-1.87 5.287-1.652 7.496-1.082-.191-2.114-.618-2.623-1.517zm4.287 6.655c0-.955.421-1.45.889-1.712.01 1.068.115 2.212.368 3.401-1.142-.5-1.25-1.454-1.257-1.689zm3.929 3.629c-1.705-4.261-.943-8.276-.338-10.289.229-.759.739-1.336 1.366-1.545 1.602-.535 3.175 1.206 4.211 2.76l1.664-1.109c-2.578-3.865-4.961-4.064-6.508-3.548-1.242.414-2.231 1.484-2.648 2.865-.254.845-.532 2.006-.681 3.378-.142.035-.282.073-.424.124-.391-1.863-.731-5.218 1.051-7.748 1.645-2.334 4.8-3.518 9.378-3.518 4.572 0 7.726 1.181 9.372 3.51 1.771 2.504 1.447 5.844 1.061 7.72-.348-3.117-1.447-5.485-1.529-5.659l-1.807.858c.032.068 3.173 6.845.046 12.057-2.655 4.425-6.965 4.513-7.143 4.515-.054 0-5.343-.05-7.071-4.371zm-4.57 22.319c1.085 1.281 2.191 2.609 2.528 4.724l-1.658.276c-2.776-1.901-5.229-4.212-5.229-4.948 0-.484 1.392-1.235 3.053-1.728.393.594.851 1.14 1.306 1.676zm-13.359.052c0-2.678 6.124-6.005 11.527-8.939.138-.075.274-.15.411-.224-.528 1.18-.938 2.595-.938 4.163 0 .517.072.989.192 1.43-1.81.558-4.192 1.654-4.192 3.57 0 2.288 4.508 5.54 6.445 6.832l.329.22 4.453-.742-.639 1.274 2.779.927-1.855 2.472c-6.445-.449-18.512-8.106-18.512-10.983zm35.947 17h-10.947-10.947c.962-1.455 1.806-3.194 2.327-4.352.791.185 1.521.305 2.158.34.03.001.061.002.091.002.554 0 1.079-.266 1.419-.721l2.097-2.794c.344-.46.446-1.061.274-1.608-.171-.547-.598-.98-1.141-1.161l-.924-.309c.103-.491-.005-1.009-.313-1.426-.402-.546-1.073-.817-1.733-.703l-.45.075c-.425-2.653-1.811-4.318-2.972-5.688-1.054-1.242-1.886-2.223-1.886-3.655 0-3.197 2.206-5.75 2.632-6.213.19-.109.362-.215.541-.322.165.741.488 1.61 1.12 2.242l1.414-1.414c-.473-.473-.644-1.447-.691-2.005 2.299-1.594 3.357-2.871 3.788-3.836.853.268 1.621.406 2.195.475v6.715c0 .197-.161.358-.359.358h-3.281c-1.301 0-2.359 1.059-2.359 2.359v1.282c0 1.301 1.059 2.358 2.359 2.358h8.281c.198 0 .359.161.359.359v2.282c0 .197-.161.358-.359.358h-5.281c-1.301 0-2.359 1.059-2.359 2.359v1.282c0 1.301 1.059 2.358 2.359 2.358h.641v9h2v-9c0-1.103-.897-2-2-2h-.641c-.198 0-.359-.161-.359-.358v-1.282c0-.198.161-.359.359-.359h5.281c1.301 0 2.359-1.058 2.359-2.358v-2.282c0-1.301-1.059-2.359-2.359-2.359h-8.281c-.198 0-.359-.161-.359-.358v-1.282c0-.198.161-.359.359-.359h3.281c1.301 0 2.359-1.058 2.359-2.358v-6.733c.557-.085 1.307-.252 2.149-.566.337.825 1.141 1.889 2.816 3.197-.115 1.093-.632 3.461-2.965 3.461v2c2.966 0 4.295-2.207 4.775-4.187.487.315 1.009.637 1.594.975.426.457 2.632 2.99 2.632 6.211 0 1.432-.832 2.413-1.886 3.655-1.161 1.371-2.547 3.035-2.972 5.688l-.45-.075c-.67-.113-1.332.157-1.733.703-.309.417-.416.935-.313 1.426l-.924.308c-.544.182-.971.615-1.142 1.162-.172.548-.069 1.148.275 1.609l2.094 2.791c.342.457.867.723 1.422.723.03 0 .062-.001.092-.003.636-.035 1.366-.155 2.156-.339.522 1.158 1.366 2.897 2.328 4.352zm-4.46-6.017-1.855-2.472 2.779-.927-.639-1.274 4.453.742.329-.22c1.938-1.292 6.446-4.544 6.446-6.832 0-1.917-2.382-3.013-4.192-3.57.12-.441.192-.913.192-1.43 0-1.568-.41-2.983-.939-4.164.138.075.274.15.411.224 5.404 2.935 11.528 6.262 11.528 8.94 0 2.877-12.069 10.535-18.513 10.983z"/></g></svg>