<svg height="512" viewBox="0 0 512 512" width="512" xmlns="http://www.w3.org/2000/svg"><g id="Corona_Virus_Symptoms_Headache" data-name="Corona Virus Symptoms Headache"><g id="Outline"><path d="m269.277 288.708c-10.047 2.854-5.969 18.328 4.373 15.39 25.438-7.227 32.727-31.17 25.359-57.1-13.848-48.741-67.7-33.365-56.054 7.61 2.89 10.173 18.285 5.816 15.391-4.374-5.92-20.833 17.38-26.635 25.272 1.136 2.629 9.252 6.495 31.418-14.341 37.338z"/><path d="m351.5 440a55.824 55.824 0 0 0 -55.5 56v8.4c0 10.576 16 10.593 16 0v-8.432a39.811 39.811 0 0 1 39.74-39.968c22.123 0 40.169 17.745 40.26 39.6v8.4c0 10.576 16 10.592 16 0v-8.432c-.129-31.027-25.8-55.757-56.5-55.568z"/><path d="m361.122 377.792-9.856-34.686c18.108-45.072 27.674-90.841 27.674-132.536 0-10.576-16-10.592-16 0 0 38.723-8.73 81.3-25.286 123.476-15.928-2.208-29.327-7.944-40.813-17.449-8.145-6.746-18.362 5.572-10.2 12.326 13.924 11.523 30.715 18.6 49.959 21.1l8.535 30.038c-11.519 10.772-51.065 45.918-94.868 64.017 5.784-22.5 7.119-21.6 6.027-25.446-11.527-37.811-9.67-40.456-14.732-43.278-5.134-2.863-4.443-.333-63.8 15.691a20.023 20.023 0 0 1 -24.7-13.773c-10.149-31.5-7.951-38.052-15.364-40.142l-20.798-5.86c16.41-45.863 17.5-16.731.793-78.453 24.482 2.15 39.281-6.822 101.51-23.242 10.187-2.894 5.8-18.282-4.374-15.39l-71.594 20.341c-45.635 12.1-74.699-20.326-90.481-65.226 41.611 8.519 108.106-57.25 171.407-81.844 9.857-3.83 4.082-18.748-5.795-14.915-67.604 26.269-145.879 102.416-172.491 76.275-5.207-6.031-15.441-1.251-13.707 7.068.653 3.127 16.193 74.881 67.8 93.1l13.6 47.84c-20.382 53.789-25.2 41.614 15.482 54.491 8.048 21.96 6.169 41.037 25.717 51.934 20.645 11.511 36.165-1.64 77.389-11.026l8.083 28.451c-7.175 22.845-15.106 60.324-18.617 82.046-1.689 10.443 14.1 13.01 15.794 2.552 2.494-15.423 5.47-29.374 8.382-42.379 38.765-13.436 79.213-42.235 108.9-69.845 97.564 76.552 73.602 124.952 94.729 118.614a8 8 0 0 0 5.358-9.965c-13.802-45.922-43.602-85.349-93.663-123.905z"/><path d="m255.656 138.32 24.944-82.32h44.114c9.27 0 8.414-11.853 11.014-18.289 2.719-10.221-12.742-14.349-15.462-4.112l-1.7 6.4c-37.672 1.72-48.565-4.182-51.554 5.68l-26.668 88c-3.072 10.138 12.228 14.821 15.312 4.641z"/><path d="m314.833 197.577 28.754-29.577c55.925-1.239 59.688 2.8 63.855-3.668l13.84-21.491c5.727-8.891-7.716-17.569-13.451-8.663l-11.477 17.822c-57.176.828-57.717-1.86-61.883 2.423l-31.111 32c-7.386 7.599 4.192 18.643 11.473 11.154z"/><path d="m466.459 43.108-24 37.292a8.012 8.012 0 0 0 6.72 12.331c7.7 0 7.006-6.378 30.735-40.963 5.725-8.898-7.721-17.568-13.455-8.66z"/><path d="m256.811 189.68a8.006 8.006 0 0 0 7.653 10.32c6.339 0 3.95-1.858 65.608-64h53.189c7.7 0 4.913-3.236 55.364-75.516a8 8 0 0 0 -1.8-10.867c-65.15-47.638-63.74-51.67-70.966-49.18-7.181 2.476-3.929 5.815-22.69 71.563h-44.762c-11.272 0-6.954 10.6-41.596 117.68zm92.508-101.68a8 8 0 0 0 7.732-5.944l16.089-60.5 47.977 36.248-42.1 62.2c-52.966.819-53.906-1.849-58.059 2.423l-39.293 40.413 22.677-74.84z"/><path d="m424.467 112c0 10.577 16 10.592 16 0 0-10.577-16-10.592-16 0z"/><path d="m342.347 8c0-10.577-16-10.592-16 0s16 10.592 16 0z"/></g></g></svg>