<svg data-v-423bf9ae="" xmlns="http://www.w3.org/2000/svg" viewBox="0 0 37.03732406399246 60" class="font"><!----><!----><!----><g data-v-423bf9ae="" id="46f98dc6-0426-4f7f-a70b-975d7127ea5b" fill="black" transform="matrix(5.223598826132939,0,0,5.223598826132939,-4.072397904269852,-20.68545155075092)"><path d="M6.20 15.37L4.47 11.28L4.47 11.28Q3.64 11.54 3.03 11.54L3.03 11.54L3.03 11.54Q2.42 11.54 2.10 11.51L2.10 11.51L1.85 14.55L1.85 14.55Q1.83 14.70 1.67 14.92L1.67 14.92L1.67 14.92Q1.50 15.15 1.32 15.27L1.32 15.27L1.32 15.27Q1.13 15.40 1.02 15.43L1.02 15.43L1.02 15.43Q0.77 15.50 0.78 15.27L0.78 15.27L1.64 5.19L1.64 5.19Q1.65 5.04 1.82 4.80L1.82 4.80L1.82 4.80Q2.17 4.34 2.52 4.30L2.52 4.30L2.52 4.30Q3.35 3.96 4.22 3.96L4.22 3.96L4.22 3.96Q5.10 3.96 5.87 4.31L5.87 4.31L5.87 4.31Q6.87 4.77 7.37 5.59L7.37 5.59L7.37 5.59Q7.87 6.40 7.87 7.28L7.87 7.28L7.87 7.28Q7.87 8.95 6.31 10.28L6.31 10.28L6.31 10.28Q6.01 10.54 5.67 10.74L5.67 10.74L7.24 14.45L7.24 14.45Q7.28 14.56 7.16 14.78L7.16 14.78L7.16 14.78Q7.04 14.99 6.83 15.18L6.83 15.18L6.83 15.18Q6.62 15.37 6.43 15.43L6.43 15.43L6.43 15.43Q6.24 15.48 6.20 15.37L6.20 15.37ZM5.33 10.15L5.33 10.15L5.33 10.15Q6.80 9.56 6.80 8.05L6.80 8.05L6.80 8.05Q6.80 7.28 6.35 6.52L6.35 6.52L6.35 6.52Q5.89 5.77 5.07 5.40L5.07 5.40L5.07 5.40Q4.24 5.03 3.43 5.03L3.43 5.03L3.43 5.03Q3.02 5.03 2.65 5.11L2.65 5.11L2.21 10.32L2.21 10.32Q3.67 10.67 5.00 10.26L5.00 10.26L5.00 10.26Q5.19 10.14 5.33 10.15Z"></path></g><!----><!----></svg>