<svg id="Capa_1" enable-background="new 0 0 512.098 512.098" height="512" viewBox="0 0 512.098 512.098" width="512" xmlns="http://www.w3.org/2000/svg"><g><path d="m151.127 430.373c-20.069-9.578-34.567-28.333-38.781-50.168l-1.42-7.358c-.423-2.191-1.8-4.08-3.756-5.154l-32.26-17.707c-3.631-1.993-8.19-.664-10.183 2.967s-.666 8.19 2.966 10.184l29.172 16.012.752 3.899c4.809 24.916 20.653 46.524 42.779 58.675v62.876c0 4.143 3.357 7.5 7.5 7.5s7.5-3.357 7.5-7.5v-67.456c0-2.892-1.661-5.525-4.269-6.77z"/><path d="m52.626 278.086 59.924 27.238c3.222 1.465 7.03.477 9.135-2.37l3.297-4.461c6.426-8.695 14.166-16.266 23.005-22.502 2.576-1.817 3.74-5.054 2.913-8.097l-39.11-143.772c-1.088-3.998-5.213-6.354-9.206-5.269-3.997 1.088-6.355 5.209-5.269 9.206l37.766 138.827c-8.255 6.405-15.588 13.878-21.849 22.27l-54.399-24.726c-19.708-8.955-43.146-1.023-53.361 18.063-10.605 19.815-3.205 44.733 16.497 55.547l17.432 9.567c1.145.628 2.382.926 3.602.926 2.649 0 5.217-1.406 6.582-3.893 1.992-3.631.664-8.19-2.967-10.184l-17.432-9.567c-12.526-6.875-17.232-22.719-10.489-35.318 6.494-12.136 21.397-17.182 33.929-11.485z"/><path d="m463.092 254.867c-3.138-2.702-7.873-2.352-10.578.785-2.704 3.138-2.353 7.873.785 10.578 27.435 23.645 43.169 57.689 43.169 93.405 0 68.507-56.719 124.241-126.435 124.241s-126.433-55.733-126.433-124.24c0-68.506 56.718-124.24 126.434-124.24 20.482 0 40.043 4.689 58.139 13.938 3.685 1.887 8.205.425 10.091-3.265 1.886-3.688.424-8.206-3.265-10.091-16.079-8.219-33.798-13.309-51.882-14.975l32.83-120.699c3.944-14.5-2.948-29.902-16.39-36.622-8.407-4.204-18.171-4.464-26.791-.711-8.618 3.752-15.082 11.075-17.734 20.093l-15.362 52.23 7.292-87.122c1.379-16.461-9.756-31.512-25.901-35.011-8.856-1.917-18.22-.074-25.687 5.058-7.468 5.134-12.543 13.214-13.924 22.171l-12.822 83.169-2.148-89.172c-.465-19.282-15.938-34.387-35.227-34.387-19.43 0-35.236 15.807-35.236 35.236v142.124l-46.713-134.826c-3.225-9.307-9.903-16.75-18.807-20.961-8.9-4.21-18.891-4.651-28.131-1.24-17.8 6.572-27.467 25.334-22.485 43.642l9.03 33.195c1.088 3.998 5.213 6.351 9.206 5.269 3.997-1.088 6.355-5.209 5.269-9.206l-9.03-33.195c-2.926-10.753 2.751-21.772 13.206-25.632 5.427-2.005 11.294-1.745 16.522.728 5.229 2.474 9.152 6.846 11.046 12.312l61.299 176.929c1.198 3.46 4.725 5.556 8.332 4.94 3.61-.607 6.255-3.733 6.255-7.396v-186.683c0-11.158 9.078-20.236 20.236-20.236 11.078 0 19.964 8.675 20.23 19.749l4.185 173.646c.094 3.884 3.138 7.054 7.015 7.304 3.884.248 7.304-2.502 7.896-6.342l25.696-166.681c.765-4.958 3.463-9.254 7.597-12.096 4.133-2.841 9.112-3.819 14.013-2.759 8.809 1.908 14.883 10.119 14.131 19.099l-13.447 160.668c-.321 3.836 2.313 7.291 6.096 7.998 3.781.711 7.486-1.564 8.573-5.256l36.187-123.034c1.396-4.745 4.796-8.598 9.331-10.572 4.535-1.973 9.674-1.837 14.096.374 7.072 3.536 10.698 11.64 8.623 19.269l-33.744 124.057c-76.928 1.218-139.13 63.193-139.13 139.212 0 57.689 35.822 107.294 86.716 128.396v16.566c0 4.143 3.357 7.5 7.5 7.5s7.5-3.357 7.5-7.5v-11.318c12.606 3.637 25.933 5.597 39.718 5.597 77.987 0 141.435-62.463 141.435-139.241-.001-40.085-17.633-78.272-48.377-104.769z"/><path d="m260.89 359.636c0 59.265 48.962 107.479 109.144 107.479 60.183 0 109.145-48.215 109.145-107.479s-48.962-107.479-109.145-107.479c-60.182-.001-109.144 48.214-109.144 107.479zm203.288 0c0 50.993-42.233 92.479-94.145 92.479s-94.144-41.486-94.144-92.479 42.232-92.479 94.144-92.479 94.145 41.486 94.145 92.479z"/><path d="m374.138 326.315c-4.143 0-7.5 3.357-7.5 7.5s3.357 7.5 7.5 7.5h5.211c.539 1.799 1.26 3.521 2.153 5.139l-3.57 3.511c-2.953 2.904-2.993 7.652-.088 10.605 1.468 1.493 3.407 2.241 5.347 2.241 1.899 0 3.799-.717 5.259-2.153l3.698-3.638c1.696.924 3.504 1.667 5.397 2.214v4.981c0 4.143 3.357 7.5 7.5 7.5s7.5-3.357 7.5-7.5v-4.981c1.893-.547 3.702-1.291 5.397-2.214l3.698 3.638c1.46 1.438 3.359 2.153 5.259 2.153 1.939 0 3.879-.748 5.347-2.241 2.905-2.953 2.865-7.701-.088-10.605l-3.57-3.511c.893-1.618 1.614-3.34 2.153-5.139h5.21c4.143 0 7.5-3.357 7.5-7.5s-3.357-7.5-7.5-7.5h-5.21c-.539-1.799-1.26-3.521-2.153-5.138l3.57-3.511c2.953-2.904 2.993-7.652.088-10.605-2.906-2.956-7.655-2.992-10.605-.088l-3.699 3.638c-1.696-.924-3.504-1.667-5.397-2.214v-4.982c0-4.143-3.357-7.5-7.5-7.5s-7.5 3.357-7.5 7.5v4.982c-1.893.546-3.701 1.29-5.397 2.214l-3.699-3.638c-2.951-2.905-7.7-2.867-10.605.088-2.905 2.953-2.865 7.701.088 10.605l3.57 3.511c-.893 1.618-1.615 3.339-2.153 5.138zm30.907-3.981c6.505 0 11.798 5.15 11.798 11.481s-5.293 11.482-11.798 11.482-11.798-5.151-11.798-11.482 5.294-11.481 11.798-11.481z"/><path d="m361.574 376.089h-3.183c-.296-.841-.636-1.662-1.026-2.456l2.138-2.103c2.953-2.904 2.993-7.652.088-10.605-2.903-2.953-7.652-2.991-10.605-.088l-2.259 2.222c-.863-.42-1.757-.786-2.677-1.098v-2.987c0-4.143-3.357-7.5-7.5-7.5s-7.5 3.357-7.5 7.5v2.986c-.92.313-1.814.679-2.677 1.099l-2.259-2.222c-2.951-2.903-7.7-2.867-10.605.088-2.905 2.953-2.865 7.701.088 10.605l2.138 2.103c-.39.794-.73 1.615-1.026 2.456h-3.182c-4.143 0-7.5 3.357-7.5 7.5s3.357 7.5 7.5 7.5h3.182c.296.841.636 1.662 1.026 2.455l-2.138 2.103c-2.953 2.904-2.993 7.652-.088 10.605 1.468 1.493 3.406 2.241 5.347 2.241 1.898 0 3.799-.717 5.259-2.153l2.259-2.222c.863.42 1.758.786 2.678 1.099v2.986c0 4.143 3.357 7.5 7.5 7.5s7.5-3.357 7.5-7.5v-2.986c.919-.313 1.814-.678 2.677-1.099l2.259 2.222c1.46 1.437 3.359 2.153 5.259 2.153 1.939 0 3.879-.748 5.347-2.241 2.905-2.953 2.865-7.701-.088-10.605l-2.137-2.103c.389-.793.729-1.614 1.026-2.455h3.183c4.143 0 7.5-3.357 7.5-7.5s-3.362-7.5-7.504-7.5zm-25.025 15.369c-4.48 0-8.126-3.53-8.126-7.869 0-4.34 3.646-7.87 8.126-7.87s8.125 3.53 8.125 7.87c0 4.339-3.644 7.869-8.125 7.869z"/><path d="m366.867 283.668c-3.777-1.701-8.217-.012-9.914 3.768l-3.861 8.595c-1.698 3.778-.011 8.217 3.768 9.914.998.449 2.041.661 3.069.661 2.862 0 5.596-1.648 6.845-4.429l3.861-8.595c1.698-3.778.01-8.217-3.768-9.914z"/><path d="m310.232 331.591 12.096 6.362c1.114.586 2.308.864 3.484.864 2.696 0 5.303-1.459 6.645-4.011 1.929-3.666.52-8.201-3.146-10.129l-12.096-6.362c-3.666-1.927-8.201-.519-10.129 3.146-1.929 3.667-.52 8.202 3.146 10.13z"/><path d="m428.085 374.096-6.106 5.311c-3.125 2.718-3.455 7.455-.737 10.581 1.483 1.705 3.566 2.578 5.662 2.578 1.745 0 3.499-.605 4.919-1.841l6.106-5.311c3.125-2.718 3.455-7.455.737-10.581-2.719-3.125-7.456-3.456-10.581-.737z"/><path d="m391.46 405.614c-4.085-.694-7.955 2.064-8.643 6.148l-1.537 9.113c-.688 4.084 2.063 7.954 6.148 8.643.422.071.842.105 1.256.105 3.594 0 6.77-2.592 7.387-6.254l1.537-9.113c.688-4.083-2.064-7.953-6.148-8.642z"/></g></svg>